<?xml version="1.0" standalone="no"?>
<!DOCTYPE svg PUBLIC "-//W3C//DTD SVG 20010904//EN"
 "http://www.w3.org/TR/2001/REC-SVG-20010904/DTD/svg10.dtd">
<svg version="1.0" xmlns="http://www.w3.org/2000/svg"
 width="1000.000000pt" height="1000.000000pt" viewBox="0 0 1000.000000 1000.000000"
 preserveAspectRatio="xMidYMid meet">
<metadata>
Created by potrace 1.16, written by Peter Selinger 2001-2019
</metadata>
<g transform="translate(0.000000,1000.000000) scale(0.100000,-0.100000)"
fill="#000000" stroke="none">
<path d="M4960 8870 l0 -60 -50 0 -50 0 0 -60 0 -60 50 0 50 0 0 -45 c0 -40
-5 -50 -44 -88 -46 -44 -66 -92 -66 -158 0 -47 -7 -49 -180 -53 -129 -3 -214
-19 -244 -47 -6 -5 -23 -9 -39 -9 -26 0 -28 3 -22 23 18 55 17 82 -5 110 -44
56 -110 21 -110 -58 0 -43 -1 -45 -30 -45 -28 0 -29 2 -28 45 0 31 -5 52 -17
65 -21 24 -67 26 -88 5 -20 -19 -30 -68 -22 -96 5 -14 2 -25 -6 -30 -23 -14
-29 -10 -29 20 0 32 -39 71 -71 71 -43 0 -74 -84 -48 -132 9 -16 7 -24 -5 -36
-15 -15 -17 -15 -32 6 -15 22 -57 30 -80 14 -34 -22 -44 -93 -19 -129 22 -31
11 -50 -28 -45 -46 5 -68 -16 -74 -69 -4 -38 -1 -50 22 -77 29 -35 28 -62 -3
-62 -30 0 -57 -37 -57 -80 0 -45 27 -80 60 -80 13 0 26 -7 29 -16 9 -23 8 -24
-14 -24 -46 0 -71 -100 -34 -141 19 -22 64 -25 82 -7 10 10 15 10 22 -2 14
-21 13 -24 -12 -35 -47 -21 -59 -102 -21 -140 30 -31 91 -12 105 33 2 8 17
-11 33 -42 45 -87 110 -156 146 -156 16 0 31 6 33 13 16 50 13 49 51 25 38
-25 39 -46 4 -83 -20 -21 -77 -25 -133 -10 l-29 8 20 -29 c34 -48 74 -134 112
-239 l36 -100 300 -7 c165 -3 507 -9 760 -12 253 -3 508 -8 566 -12 106 -6
107 -6 114 17 14 43 127 304 141 324 24 34 18 48 -13 32 -72 -36 -120 -28
-153 25 l-19 32 31 18 c16 11 31 18 33 16 1 -2 8 -14 14 -26 26 -49 89 -7 168
112 40 60 47 66 56 50 38 -69 136 -25 123 55 -6 37 -31 71 -54 71 -9 0 -12 6
-8 16 3 9 6 18 6 20 0 3 10 -2 22 -10 32 -22 55 -20 83 9 17 16 25 35 25 60 0
35 -35 85 -60 85 -5 0 -10 6 -10 14 0 8 15 17 35 20 25 5 39 15 51 38 27 51
-2 128 -48 128 -26 0 -23 38 5 60 33 27 32 104 -2 131 -17 14 -33 18 -51 14
-34 -7 -48 19 -25 45 22 25 19 96 -5 120 -25 25 -62 26 -85 0 -13 -15 -22 -17
-36 -9 -18 9 -18 12 -3 41 28 54 -2 128 -53 128 -28 0 -63 -33 -63 -59 0 -24
-13 -33 -33 -25 -12 4 -13 12 -7 34 22 78 -38 136 -98 94 -18 -12 -22 -25 -22
-65 0 -47 -2 -50 -22 -47 -18 2 -22 8 -20 30 3 28 -12 67 -32 80 -21 14 -63 8
-80 -11 -17 -19 -25 -89 -12 -109 14 -23 -41 -20 -93 4 -70 33 -192 55 -295
52 -45 -2 -87 1 -93 5 -7 5 -13 27 -13 50 0 65 -18 114 -56 152 -30 30 -34 41
-34 85 l0 50 50 0 50 0 0 60 0 60 -50 0 -50 0 0 60 0 60 -50 0 -50 0 0 -60z
m-115 -669 c3 -5 12 -56 20 -112 11 -79 12 -127 4 -213 -13 -148 -43 -289 -74
-349 -14 -27 -25 -50 -25 -52 0 -2 34 -24 75 -50 48 -29 75 -53 75 -64 0 -10
9 -26 20 -36 25 -22 19 -31 -10 -15 -25 13 -70 6 -70 -12 0 -6 -6 -19 -14 -27
-12 -14 -11 -21 10 -53 27 -42 47 -47 97 -23 l32 16 -30 -26 c-66 -55 -134
-54 -189 4 l-28 29 22 30 c26 36 21 83 -13 107 -29 20 -43 19 -67 -5 -28 -28
-25 -64 10 -104 l30 -34 -30 -26 c-60 -50 -135 -52 -200 -6 -37 26 -34 35 6
20 41 -16 67 -5 86 36 16 35 16 36 -9 65 -30 33 -42 35 -83 14 -17 -9 -30 -13
-30 -10 0 2 41 36 90 76 50 39 90 74 90 79 0 4 -20 45 -44 91 -91 172 -144
388 -116 473 24 74 95 134 198 167 61 19 157 25 167 10z m461 -11 c111 -38
183 -103 205 -185 26 -93 -50 -336 -158 -508 -13 -21 -22 -45 -20 -52 3 -7 46
-45 96 -85 50 -40 91 -75 91 -78 0 -3 -8 2 -18 11 -29 26 -77 22 -96 -9 -14
-21 -15 -31 -6 -60 15 -43 31 -50 82 -37 l39 11 -21 -23 c-52 -55 -154 -54
-220 1 l-30 26 -47 -31 c-58 -39 -104 -41 -156 -6 -20 14 -37 31 -37 37 0 6 8
4 18 -5 32 -29 74 -21 100 20 21 32 21 37 8 45 -9 5 -16 15 -16 23 0 29 -70
40 -86 14 -3 -5 -10 -9 -16 -9 -7 0 0 13 15 28 15 15 27 36 27 45 0 9 28 33
70 58 39 23 70 44 70 48 0 3 -9 29 -19 57 -11 28 -25 88 -31 133 -21 156 -13
457 15 539 7 18 74 15 141 -8z m-1051 -97 c-37 -94 -41 -225 -14 -437 10 -80
10 -111 -1 -163 -7 -37 -9 -68 -4 -73 5 -4 33 -15 62 -25 29 -9 56 -24 59 -34
3 -9 20 -29 37 -44 21 -20 25 -27 11 -21 -11 4 -34 9 -51 11 -27 4 -34 0 -52
-31 l-22 -37 27 -29 c30 -34 61 -38 100 -13 25 17 26 17 12 -4 -19 -31 -81
-63 -123 -63 -41 0 -82 18 -109 47 -15 18 -16 23 -3 47 10 19 11 37 6 57 -12
40 -17 46 -45 53 -32 8 -65 -9 -65 -34 0 -26 -16 -33 -34 -14 -23 22 -20 35
14 72 43 47 39 74 -19 136 -61 63 -105 150 -121 234 -16 91 3 172 62 259 54
80 134 121 237 122 37 1 42 -1 36 -16z m1640 -32 c75 -34 141 -129 167 -239
23 -101 -25 -232 -121 -336 -70 -76 -75 -96 -31 -151 34 -43 33 -40 20 -66
-13 -24 -30 -25 -30 -1 0 43 -55 57 -90 22 -23 -23 -27 -89 -7 -109 23 -23
-56 -71 -119 -71 -43 0 -104 31 -123 61 -14 23 -14 23 12 6 39 -25 70 -21 100
13 l27 29 -21 36 c-22 37 -51 45 -90 25 -28 -15 -24 5 5 24 14 8 26 26 28 38
2 17 16 26 59 41 l57 19 -5 102 c-4 74 -1 129 12 197 25 139 22 258 -12 373
-5 18 -1 18 58 12 35 -4 82 -16 104 -25z m-1323 -1129 c4 -4 -45 -29 -109 -57
l-115 -49 -96 33 c-176 60 -173 50 -32 102 l124 46 110 -34 c61 -19 114 -38
118 -41z m524 36 c57 -23 104 -45 104 -48 0 -8 -206 -93 -224 -93 -6 0 -62 22
-123 50 l-111 51 -21 -29 c-26 -35 -71 -39 -101 -9 -27 27 -25 55 6 79 35 27
55 26 84 -4 31 -33 47 -32 160 10 52 18 101 34 109 35 8 0 61 -19 117 -42z
m655 -19 c52 -23 105 -46 119 -51 22 -9 10 -15 -108 -53 l-133 -43 -119 57
c-66 31 -120 59 -120 62 0 6 223 67 251 68 8 1 58 -17 110 -40z"/>
<path d="M3245 6543 c-368 -8 -680 -16 -693 -19 -22 -4 -23 -8 -20 -82 l3 -77
180 -6 c204 -6 250 -15 355 -67 91 -44 152 -104 188 -180 l27 -57 0 -2060 c0
-1608 -3 -2069 -12 -2101 -19 -60 -70 -132 -122 -170 -102 -75 -236 -109 -486
-122 l-130 -7 -3 -78 -3 -78 1498 4 c1492 3 1499 3 1628 25 833 142 1495 543
1926 1167 279 403 418 810 450 1316 40 650 -173 1234 -643 1759 -242 271 -658
551 -965 649 -165 53 -667 146 -923 170 -361 34 -1062 39 -2255 14z m2076
-173 c414 -40 797 -193 1099 -437 97 -79 258 -246 341 -353 349 -455 515
-1022 496 -1695 -10 -358 -55 -602 -164 -885 -159 -416 -465 -786 -844 -1021
-447 -277 -994 -392 -1712 -360 -205 9 -241 13 -311 36 -96 31 -108 37 -157
82 -74 67 -69 -119 -69 2361 l0 2224 21 29 20 29 589 0 c323 0 634 -5 691 -10z"/>
<path d="M2542 5823 c8 -215 43 -295 155 -350 50 -24 70 -28 143 -28 101 0
149 15 201 62 64 58 79 115 79 303 l0 160 -291 0 -292 0 5 -147z m556 -25 c-9
-196 -83 -278 -252 -278 -189 0 -276 94 -276 297 l0 83 266 0 267 0 -5 -102z"/>
<path d="M2540 5035 c0 -122 2 -145 15 -145 12 0 15 19 15 110 l0 110 130 0
130 0 0 -100 c0 -82 3 -100 15 -100 12 0 15 18 15 100 l0 100 120 0 120 0 0
-110 c0 -67 4 -110 10 -110 6 0 10 55 10 145 l0 145 -290 0 -290 0 0 -145z"/>
<path d="M2823 4524 c-161 -69 -293 -129 -293 -132 0 -7 568 -262 583 -262 4
0 7 6 7 13 0 8 -96 56 -232 117 -128 56 -234 104 -236 105 -1 1 103 47 233
101 l235 99 0 43 c0 23 -1 42 -2 41 -2 0 -135 -57 -295 -125z"/>
<path d="M2540 3865 c0 -12 35 -15 230 -17 l231 -3 -235 -210 c-129 -115 -235
-213 -235 -217 -1 -5 132 -8 294 -8 186 0 295 4 295 10 0 6 -89 11 -232 12
l-232 3 237 214 c130 118 237 219 237 223 0 4 -133 8 -295 8 -254 0 -295 -2
-295 -15z"/>
<path d="M2540 3095 l0 -35 290 0 290 0 0 35 0 35 -290 0 -290 0 0 -35z"/>
<path d="M3100 2715 l0 -85 -280 0 -280 0 0 -40 0 -40 280 0 280 0 0 -85 c0
-50 4 -85 10 -85 6 0 10 77 10 210 0 133 -4 210 -10 210 -6 0 -10 -35 -10 -85z"/>
<path d="M2540 2085 l0 -35 290 0 290 0 0 35 0 35 -290 0 -290 0 0 -35z"/>
</g>
</svg>
